<svg width="117" height="21" viewBox="0 0 117 21" fill="none" xmlns="http://www.w3.org/2000/svg">
<path d="M83.629 7.20801H87.5187V10.5741H83.629V7.20801ZM83.629 10.5741H87.5187V13.9401H83.629V10.5741ZM83.629 13.9401H87.5187V17.3062H83.629V13.9401ZM83.629 17.3062H87.5187V20.6723H83.629V17.3062ZM79.7393 7.20801H83.629V10.5741H79.7393V7.20801ZM79.7393 17.3062H83.629V20.6723H79.7393V17.3062ZM75.8496 10.5741H79.7393V13.9401H75.8496V10.5741ZM75.8496 13.9401H79.7393V17.3062H75.8496V13.9401Z" fill="black"/>
<path d="M90.2109 6.92603H94.2502V10.2921H90.2109V6.92603ZM90.2109 10.2921H94.2502V13.6582H90.2109V10.2921ZM90.2109 13.6582H94.2502V17.0242H90.2109V13.6582ZM90.2109 17.0242H94.2502V20.3903H90.2109V17.0242ZM94.2502 6.92603H100.982V10.2921H94.2502V6.92603Z" fill="black"/>
<path d="M40.543 7.1145H44.4327L44.4327 10.9655H40.543L40.543 7.1145ZM36.6534 7.1145H40.543L40.543 10.9655H36.6534L36.6534 7.1145ZM32.7637 10.9655H36.6534V14.1072H32.7637V10.9655ZM40.543 14.1072H44.4327V17.2489H40.543V14.1072ZM40.543 17.2489H44.4327V20.6093H40.543V17.2489ZM32.7637 17.2489H36.6534V20.6093H32.7637V17.2489ZM32.7637 7.1145H36.6534L36.6534 10.9655H32.7637L32.7637 7.1145ZM36.6534 17.2489H40.543V20.6093H36.6534V17.2489Z" fill="black"/>
<path d="M26.2361 20.641C24.7882 20.641 23.4256 20.641 22.4517 20.641C19.1404 20.641 15.8291 18.0253 15.8291 13.8792C15.8291 9.73309 19.1404 7.11743 22.4517 7.11743C23.3143 7.11743 26.2604 7.11743 26.2604 7.11743L30.1004 7.11743L30.0761 20.641H26.2361ZM19.8361 13.8792C19.8361 15.7435 21.45 16.9679 23.0917 16.9679C24.6778 16.9679 26.2361 15.827 26.2361 13.8792C26.2361 11.9592 24.6778 10.7905 23.0917 10.7905C21.45 10.7905 19.8361 12.0148 19.8361 13.8792Z" fill="black"/>
<path d="M3.92349 13.8512C3.92349 15.7433 5.28697 16.9955 6.92872 16.9955C8.57047 16.9955 9.93395 15.7712 9.93395 13.8512C9.93395 11.959 8.59829 10.7625 6.92872 10.7625C5.37045 10.7625 3.92349 11.9312 3.92349 13.8512ZM0 20.6686V0.327637H3.84001L3.8157 7.11722C3.8157 7.11722 6.01046 7.11722 7.6522 7.11722C10.9913 7.11722 13.9409 9.76071 13.9409 13.9346C13.9409 18.0529 11.6106 20.6686 7.6522 20.6686C6.01046 20.6686 3.84001 20.6686 3.84001 20.6686H0Z" fill="black"/>
<path d="M112.209 13.8512C112.209 15.7433 110.846 16.9955 109.204 16.9955C107.562 16.9955 106.199 15.7712 106.199 13.8512C106.199 11.959 107.535 10.7625 109.204 10.7625C110.762 10.7625 112.209 11.9312 112.209 13.8512ZM116.133 20.6686V0.327637H112.293L112.317 7.11722C112.317 7.11722 110.122 7.11722 108.481 7.11722C105.141 7.11722 102.192 9.76071 102.192 13.9346C102.192 18.0529 105.141 20.6686 108.481 20.6686C110.122 20.6686 112.293 20.6686 112.293 20.6686H116.133Z" fill="black"/>
<path d="M61.334 13.8514C61.334 9.73309 64.701 7.11743 68.4018 7.11743C70.7392 7.11743 72.7984 8.09135 74.0506 9.87222L70.9062 12.1261C70.3775 11.2635 69.4036 10.8183 68.4018 10.8183C66.7601 10.8183 65.174 11.987 65.174 13.8514C65.174 15.7157 66.7601 16.9679 68.4018 16.9679C69.4036 16.9679 70.3775 16.5227 70.9062 15.6601L74.0506 17.8862C72.8262 19.667 70.7392 20.6688 68.4018 20.6688C64.701 20.6688 61.334 17.9418 61.334 13.8514Z" fill="black"/>
<path d="M56.2382 16.1053L59.0486 18.0253C57.7129 19.9731 55.3477 20.6688 53.1216 20.6688C49.4207 20.6688 46.332 17.9418 46.332 13.8514C46.332 9.73309 49.4207 7.11743 53.1216 7.11743C56.8225 7.11743 59.7721 9.87222 59.7721 13.9627C59.7721 14.2966 59.7443 14.8253 59.7164 15.1592H50.1999C50.4225 16.6618 52.0086 17.3296 53.3999 17.3296C54.4851 17.3296 55.5981 16.9679 56.2382 16.1053ZM50.2555 12.7383H55.8764C55.6538 11.1522 54.2625 10.5122 53.1494 10.5122C52.0921 10.5122 50.5616 11.0687 50.2555 12.7383Z" fill="black"/>
</svg>
